HIERARCHY
ROOT Hips
{
 OFFSET 0.000000 0.000000 0.000000
 CHANNELS 6 Xposition Yposition Zposition Yrotation Xrotation Zrotation
 JOINT Chest
 {
  OFFSET 0.000000 14.374500 -0.011500
  CHANNELS 3 Yrotation Xrotation Zrotation
  JOINT Chest2
  {
   OFFSET 0.000000 9.203400 0.023400
   CHANNELS 3 Yrotation Xrotation Zrotation
   JOINT Chest3
   {
    OFFSET 0.000000 9.162700 0.000000
    CHANNELS 3 Yrotation Xrotation Zrotation
    JOINT Chest4
    {
     OFFSET 0.000000 9.153300 0.000000
     CHANNELS 3 Yrotation Xrotation Zrotation
     JOINT Neck
     {
      OFFSET 0.000000 13.353600 0.000000
      CHANNELS 3 Yrotation Xrotation Zrotation
      JOINT Head
      {
       OFFSET 0.000000 8.573800 0.049400
       CHANNELS 3 Yrotation Xrotation Zrotation
       End Site
       {
        OFFSET 0.000000 16.219200 0.026100
       }
      }
     }
     JOINT RightCollar
     {
      OFFSET -2.497100 8.876100 0.000000
      CHANNELS 3 Yrotation Xrotation Zrotation
      JOINT RightShoulder
      {
       OFFSET -12.289200 0.000000 0.000000
       CHANNELS 3 Yrotation Xrotation Zrotation
       JOINT RightElbow
       {
        OFFSET 0.000000 -28.194900 0.000000
        CHANNELS 3 Yrotation Xrotation Zrotation
        JOINT RightWrist
        {
         OFFSET 0.000000 -23.009700 0.007900
         CHANNELS 3 Yrotation Xrotation Zrotation
         End Site
         {
          OFFSET 0.000000 -17.151500 0.000000
         }
        }
       }
      }
     }
     JOINT LeftCollar
     {
      OFFSET 2.497100 8.876100 0.000000
      CHANNELS 3 Yrotation Xrotation Zrotation
      JOINT LeftShoulder
      {
       OFFSET 12.289200 0.000000 0.000000
       CHANNELS 3 Yrotation Xrotation Zrotation
       JOINT LeftElbow
       {
        OFFSET 0.000000 -28.194900 0.000000
        CHANNELS 3 Yrotation Xrotation Zrotation
        JOINT LeftWrist
        {
         OFFSET 0.000000 -23.009700 0.007900
         CHANNELS 3 Yrotation Xrotation Zrotation
         End Site
         {
          OFFSET 0.000000 -17.151500 0.000000
         }
        }
       }
      }
     }
    }
   }
  }
 }
 JOINT RightHip
 {
  OFFSET -11.777600 0.056700 0.005700
  CHANNELS 3 Yrotation Xrotation Zrotation
  JOINT RightKnee
  {
   OFFSET 0.000000 -39.966000 -0.004200
   CHANNELS 3 Yrotation Xrotation Zrotation
   JOINT RightAnkle
   {
    OFFSET 0.000000 -41.981900 0.027400
    CHANNELS 3 Yrotation Xrotation Zrotation
    JOINT RightToe
    {
     OFFSET 0.000000 -9.910600 16.950100
     CHANNELS 3 Yrotation Xrotation Zrotation
     End Site
     {
      OFFSET 0.000000 -1.461000 6.191600
     }
    }
   }
  }
 }
 JOINT LeftHip
 {
  OFFSET 11.777600 0.056700 0.005700
  CHANNELS 3 Yrotation Xrotation Zrotation
  JOINT LeftKnee
  {
   OFFSET 0.000000 -39.966000 -0.004200
   CHANNELS 3 Yrotation Xrotation Zrotation
   JOINT LeftAnkle
   {
    OFFSET 0.000000 -41.981900 0.027400
    CHANNELS 3 Yrotation Xrotation Zrotation
    JOINT LeftToe
    {
     OFFSET 0.000000 -9.910600 16.950100
     CHANNELS 3 Yrotation Xrotation Zrotation
     End Site
     {
      OFFSET 0.000000 -1.461000 6.191600
     }
    }
   }
  }
 }
}
MOTION
Frames: 8
Frame Time: 0.008333
0.000000 91.618700 0.000000 0.000000 -5.767877 0.000000 0.000000 11.653817 0.000000 0.000000 -5.885947 0.000000 0.000000 -0.000000 0.000000 0.000000 -0.000000 0.000000 0.000000 12.528835 0.000000 0.000000 0.711642 0.000000 0.000000 -0.000000 0.000000 0.000000 0.000000 -90.000000 0.000000 -2.309062 0.000000 0.000000 2.309062 0.000000 0.000000 -0.000000 0.000000 0.000000 -0.000000 90.000000 0.000000 -2.309062 0.000000 0.000000 2.309062 0.000000 0.000000 8.520406 0.000000 0.000000 1.905762 0.000000 -0.000000 -4.658285 0.000000 0.000000 -0.000000 0.000000 0.000000 8.520406 0.000000 0.000000 1.905762 0.000000 -0.000000 -4.658285 0.000000 0.000000 -0.000000 0.000000
5.697104 152.632812 21.639317 174.562037 -47.765872 -2.911501 5.286341 29.111119 2.516307 0.835422 5.504403 0.296927 1.322839 8.611816 0.502570 3.912236 23.264143 1.909398 -0.568153 13.108095 2.515598 -1.127239 -11.936824 2.748443 2.164225 -1.809189 0.587486 11.629415 -17.986238 -8.576938 -2.726291 -70.403078 21.931070 20.898393 13.637169 -31.814939 -10.939813 -6.630348 0.518068 -5.452404 -18.476695 4.845353 36.424236 -23.498080 -71.192351 2.672482 -23.750879 34.979122 5.273932 -29.949619 0.985437 -69.477044 86.198487 -71.776427 1.727065 -23.442949 8.307847 0.056992 -0.196023 0.036124 1.333203 -26.463865 -3.053683 149.233047 66.542876 162.082527 -2.106889 7.242704 -7.568795 0.195149 -10.894283 -1.395108
5.143314 145.605183 22.878109 174.710284 -47.713047 -3.093487 5.223888 29.057553 2.594909 0.834708 5.506899 0.297169 1.323164 8.612500 0.502278 3.912290 23.263723 1.910047 -0.552328 13.097071 2.512226 -1.106205 -11.955359 2.740961 2.167898 -1.829591 0.586088 11.622581 -17.964517 -8.571330 -2.787992 -70.407082 21.984420 20.900586 13.614842 -31.787399 -10.942183 -6.653568 0.514515 -5.462881 -18.461766 4.846136 36.399036 -23.524501 -71.168978 2.696619 -23.764730 34.965191 5.132656 -30.025571 1.063074 -69.919622 86.205622 -72.218749 1.744915 -23.526904 8.318648 0.031639 -0.132706 0.018490 1.192715 -26.496937 -2.966404 149.220924 66.570275 162.070074 -2.081621 7.256625 -7.541550 0.039015 0.025478 0.022808
4.686445 139.819039 23.896923 174.819365 -47.675900 -3.230319 5.177894 29.023720 2.656092 0.834917 5.504418 0.298600 1.323632 8.612529 0.503487 3.911524 23.265292 1.907366 -0.533988 13.083310 2.508754 -1.106323 -11.958481 2.740941 2.168669 -1.845707 0.585161 11.619516 -17.943269 -8.558837 -2.946915 -70.424482 22.109994 20.929435 13.600466 -31.728625 -10.945189 -6.667709 0.513331 -5.476205 -18.451116 4.846120 36.366589 -23.578200 -71.143090 2.695191 -23.848371 34.949731 5.025480 -30.083321 1.124220 -70.310098 86.211805 -72.608802 1.752444 -23.595675 8.324140 0.012652 -0.075773 0.007394 1.087169 -26.516616 -2.899959 149.209806 66.594476 162.060680 -2.060433 7.278272 -7.535257 0.018242 0.016322 0.010666
4.353617 135.642377 24.630090 174.868329 -47.661200 -3.295072 5.159043 29.008876 2.689402 0.834567 5.503615 0.299153 1.324293 8.611629 0.505606 3.913378 23.268677 1.912758 -0.516422 13.069636 2.501972 -1.108395 -11.960090 2.736783 2.165248 -1.851661 0.576306 11.615463 -17.926745 -8.540956 -3.078101 -70.447427 22.212515 20.936115 13.573382 -31.664077 -10.952809 -6.700767 0.500058 -5.495245 -18.420805 4.850421 36.325049 -23.663003 -71.106928 2.742527 -23.933079 34.931193 4.978155 -30.111148 1.153819 -70.557012 86.215796 -72.852680 1.751479 -23.631146 8.325963 0.005967 -0.046170 0.003488 1.037484 -26.518054 -2.867822 149.201844 66.611301 162.055665 -2.054210 7.293191 -7.538482 0.011853 0.007253 0.006931
4.144871 133.003690 25.093914 174.900072 -47.644941 -3.342914 5.149481 28.991755 2.716533 0.833745 5.502735 0.299527 1.324905 8.608286 0.507871 3.915707 23.268509 1.915224 -0.496444 13.059185 2.498025 -1.086522 -11.971219 2.727896 2.181075 -1.863807 0.575034 11.591259 -17.904479 -8.532381 -3.291976 -70.466280 22.392550 20.946222 13.537510 -31.581590 -10.961439 -6.728115 0.486674 -5.525701 -18.390748 4.859702 36.281284 -23.772577 -71.056559 2.805524 -24.027722 34.889338 4.947696 -30.139266 1.174243 -70.731461 86.221164 -73.022532 1.759437 -23.662100 8.323976 0.000903 -0.017645 0.000528 1.001367 -26.522983 -2.842854 149.194213 66.623528 162.050286 -2.043707 7.303268 -7.538398 0.003049 0.002615 0.001783
4.028513 131.553264 25.347603 174.903002 -47.638410 -3.351921 5.147848 28.985587 2.722401 0.835752 5.501766 0.299607 1.324927 8.601903 0.512866 3.918462 23.267468 1.914655 -0.449940 13.040019 2.495972 -1.026720 -11.986666 2.705701 2.230514 -1.889555 0.585023 11.522130 -17.841136 -8.491606 -3.448925 -70.519114 22.508891 20.955508 13.496374 -31.482983 -10.969449 -6.749390 0.473867 -5.574820 -18.362876 4.871887 36.244358 -23.902861 -70.997118 2.872050 -24.114411 34.824564 4.943389 -30.150842 1.179317 -70.798660 86.223618 -73.088782 1.758484 -23.669508 8.325802 0.000502 -0.009922 0.000294 0.994336 -26.522856 -2.838292 149.184980 66.629582 162.041570 -2.041313 7.308511 -7.537602 0.000528 0.000165 0.000309
3.973240 130.862497 25.467957 174.902405 -47.630616 -3.355028 5.145326 28.974229 2.733643 0.836818 5.502249 0.295428 1.325688 8.595786 0.513526 3.920456 23.267678 1.918418 -0.418481 13.030691 2.489940 -1.007605 -11.984424 2.694455 2.255370 -1.897898 0.586575 11.485546 -17.800007 -8.464986 -3.675400 -70.579119 22.679065 20.961935 13.456261 -31.372363 -10.976842 -6.773823 0.452735 -5.644966 -18.329359 4.887308 36.215624 -24.056275 -70.930763 2.935640 -24.194167 34.749146 4.942203 -30.161164 1.181995 -70.816646 86.224855 -73.107330 1.755934 -23.672349 8.327612 0.000545 -0.006167 0.000319 0.991510 -26.527177 -2.837037 149.179785 66.632094 162.037087 -2.041420 7.310105 -7.535052 -0.000995 -0.001930 -0.000582
